<?xml version="1.0" encoding="utf-8"?>
<!-- Generator: Adobe Illustrator 19.2.1, SVG Export Plug-In . SVG Version: 6.00 Build 0)  -->
<svg version="1.1" id="Слой_1" xmlns="http://www.w3.org/2000/svg" xmlns:xlink="http://www.w3.org/1999/xlink" x="0px" y="0px"
	 viewBox="0 0 549 110.7" style="enable-background:new 0 0 549 110.7;" xml:space="preserve">
<style type="text/css">
	.st0{fill:#FFFFFF;}
	.st1{fill:#F27300;}
</style>
<path class="st0" d="M78.8,39.1c0-5-1.1-9.2-3.2-12.8c-2.1-3.5-5.1-6-9.1-7.5c3.7,0.3,6.8,1.4,9.3,3.2c2.5,1.8,4.4,4.1,5.7,7
	c1.3,2.8,1.9,6,1.9,9.4c0,10.5-5.5,17-16.5,19.5C74.9,54.4,78.8,48.1,78.8,39.1z M80.3,67.7c3.4,3.7,5.1,8.4,5.1,14.4
	c0,6.4-1.6,11.5-4.8,15.2c-3.2,3.7-7.9,5.9-14.1,6.5c9.7-3,14.5-10,14.5-20.8c0-5.7-1.3-10.2-3.8-13.7c-2.5-3.5-6.2-6-11-7.7
	C72.2,62,76.9,64.1,80.3,67.7z M55.8,61.5c4.7,0,8.8,0.9,12.2,2.6c3.4,1.8,6,4.2,7.8,7.5c1.8,3.2,2.7,7,2.7,11.4c0,4.3-0.8,8-2.4,11
	c-1.6,3-4,5.3-7.3,6.9c-3.2,1.6-7.3,2.4-12.3,2.4c-3.5,0-6.3-0.1-8.3-0.4c-2-0.2-3.7-0.7-5.1-1.5c-1.4-0.8-2.3-1.8-2.9-3.1
	c-0.6-1.3-0.9-3-0.9-5.2V61.5H55.8z M39.4,28.9c0-3.7,1-6.3,2.9-7.9c1.9-1.5,5.7-2.3,11.1-2.3c4.2,0,7.5,0.3,10,0.8
	c2.5,0.5,4.7,1.8,6.8,3.7c2,1.7,3.5,3.9,4.6,6.7c1.1,2.7,1.6,5.6,1.6,8.7c0,3.9-0.9,7.4-2.6,10.5c-1.7,3.1-4,5.3-6.7,6.6
	c-3,1.4-7.8,2.1-14.3,2.1H39.4V28.9z M26.9,100.2c-1,2-3.4,3-7.1,3h-2.1c2.2-0.8,3.7-1.9,4.7-3.2c0.9-1.4,1.4-3.7,1.4-7V28.9
	c0-3.2-0.4-5.6-1.3-7c-0.9-1.4-2.5-2.5-4.8-3.1h1.5c3.5,0,5.9,0.7,7.2,2.1c1.3,1.4,1.9,3.6,1.9,6.5v65.2
	C28.3,95.7,27.8,98.2,26.9,100.2z M78.8,105.1c4.2-1.1,7.8-2.7,10.8-4.8c3-2.1,5.3-4.5,6.9-7.3c1.6-2.8,2.4-5.8,2.4-9.1
	c0-6.4-2.6-11.7-7.8-15.9c-5.2-4.3-12.7-7-22.4-8.1c5.9-0.8,10.9-2.2,15.1-4.2c4.1-2,7.2-4.5,9.2-7.5c2-3,3-6.2,3-9.8
	c0-3.3-0.8-6.3-2.4-9.2c-1.6-2.8-3.9-5.3-6.7-7.4c-2.9-2.1-6.4-3.7-10.6-4.9c-4.2-1.2-8.8-1.8-13.8-1.8H6v3.6
	c4.8,0,8.3,0.4,10.4,1.1c2.1,0.8,3.5,2,4.1,3.6c0.6,1.7,0.9,4.2,0.9,7.5v57.5c0,4-0.2,6.9-0.6,8.7c-0.4,1.8-1.6,3.2-3.5,4.3
	s-5.2,1.7-9.6,1.7H6v3.6h58.9C69.9,106.8,74.5,106.3,78.8,105.1z"/>
<path class="st1" d="M123.4,106.5c-2.3,0-4.6-0.5-6.8-1.6c-2.2-1.1-4-2.6-5.4-4.5c-1.4-1.9-2.1-4.1-2.1-6.5c0-2.1,0.5-3.9,1.4-5.4
	c0.9-1.5,2.2-3,3.9-4.6c-1,1.9-1.7,3.2-2.1,4.2c-0.4,0.9-0.6,2.2-0.6,3.7c0,3.8,1.4,7.1,4.3,9.7c2.9,2.6,6.6,4.2,11.2,4.7
	C125.7,106.4,124.4,106.5,123.4,106.5z M131.3,101.9c-2.4,0-4.7-0.6-6.9-1.9c-2.2-1.3-3.9-2.9-5.2-5c-1.3-2-2-4.1-2-6.3
	c0-2.1,0.7-4.1,2-6c1.3-1.8,3.5-3.9,6.4-6.2c1.8,1.7,3.6,3.5,5.4,5.5s3.2,3.7,4.4,5.1c1.2,1.4,2.5,3.2,4,5.2c1.5,2,2.6,3.5,3.2,4.3
	C139.3,100.2,135.5,101.9,131.3,101.9z M157.9,106.5c-1.7,0-3.2-0.4-4.7-1.1c-1.5-0.7-2.8-1.8-4.1-3.1c-1.3-1.3-2.6-2.9-3.9-4.7
	c-1.3-1.8-2.9-3.9-4.7-6.4c-2.4-3.3-4.8-6.2-7.1-8.7c-2.3-2.5-4.9-5.2-7.8-8.2c-2.9-3-4.9-5.3-6-6.8c-1.1-1.5-1.6-2.9-1.6-4.2
	c0-1.6,0.9-3.4,2.8-5.5c-0.7,1.5-1,2.5-1,3.1c0,1.4,0.5,2.8,1.6,4.4c1.1,1.5,3.1,3.8,6.1,6.8c2.9,3,5.6,5.8,7.8,8.2
	c2.3,2.5,4.8,5.5,7.4,8.9c3.5,4.6,5.9,7.7,7.2,9.3c1.3,1.6,2.8,3,4.6,4.2c1.8,1.2,3.9,1.8,6.2,1.8c1.4,0,2.9-0.3,4.5-0.9
	C162.9,105.6,160.4,106.5,157.9,106.5z M129.3,65.8c-0.9-0.8-1.9-1.7-2.9-2.7c-1-1-1.7-1.9-2.2-2.7c-0.4-0.8-0.7-1.5-0.7-2.3
	c0-1,0.5-2,1.6-3c1.1-1,2.3-1.5,3.8-1.5c1.2,0,2.5,0.5,3.9,1.5c1.4,1,2.5,2.2,3.5,3.6c0.9,1.4,1.4,2.5,1.4,3.5c0,1.9-1.8,4-5.5,6.4
	C131.2,67.5,130.2,66.6,129.3,65.8z M139.2,62.5c0-0.1,0.1-0.3,0.1-0.4c0-0.1,0-0.3,0-0.5c0-0.7-0.5-1.8-1.5-3.3
	c-1-1.5-2.3-2.8-3.9-4c-1.6-1.2-3.3-1.8-5.2-1.9c1.5-0.6,2.7-0.9,3.4-0.9c1.2,0,2.5,0.4,3.9,1.2c1.4,0.8,2.5,1.8,3.4,2.9
	c0.9,1.2,1.4,2.3,1.4,3.5c0,1.4-0.6,2.7-1.9,4C139.1,62.8,139.2,62.6,139.2,62.5z M157.8,77.8c0-0.2,0-0.4,0.1-0.6
	c0.1-0.2,0.1-0.4,0.1-0.6c0-2.2-1.1-3.8-3.2-4.7h9.4C161.7,73.4,159.5,75.3,157.8,77.8z M133.9,105.5c3.7-1.6,7.1-3.9,10.3-6.8
	c1.9,2.8,4,5.1,6.3,6.7c2.3,1.7,4.7,2.5,7,2.5c1.8,0,3.6-0.4,5.3-1.2c1.7-0.8,3.2-1.9,4.6-3.5c1.4-1.5,2.6-3.5,3.8-6l-2.2-0.9
	c-2,3.3-4.1,4.9-6.5,4.9c-1.3,0-2.5-0.5-3.6-1.4c-1.1-0.9-2.6-2.7-4.5-5.3l-2.8-3.8c3.3-4.4,5.9-7.8,7.9-10.2c2-2.4,3.9-4.4,5.9-5.9
	c2-1.5,4.1-2.4,6.3-2.7v-2.2h-21.9V72c2.1,0,3.7,0.5,5,1.4c1.2,0.9,1.8,2.1,1.8,3.4c0,1.3-0.6,2.9-1.7,4.9c-1.2,2-2.8,4.3-5.1,7
	c-1.8-2.6-4-5.4-6.5-8.4s-5.5-6.4-9.1-10c3.2-2.1,5.5-3.7,6.8-4.7c1.3-1,2.5-2.1,3.6-3.5c1-1.3,1.6-2.7,1.6-4.1c0-1-0.3-2-0.8-3.1
	s-1.3-2.2-2.2-3.2c-1-1-2.1-1.9-3.4-2.5c-1.3-0.6-2.8-0.9-4.4-0.9c-1.8,0-3.8,0.5-6,1.5c-2.2,1-4.2,2.4-6.1,4
	c-1.9,1.6-3.5,3.3-4.7,5c-1.2,1.7-1.8,3.2-1.8,4.6c0,2.8,2.5,6.6,7.4,11.5c-2.6,1.6-5.2,3.4-7.8,5.7c-1.9,1.6-3.5,3.1-4.7,4.4
	c-1.2,1.3-2.1,2.8-2.8,4.3c-0.7,1.5-1,3.1-1,4.9c0,2.4,0.7,4.6,2,6.8c1.4,2.2,3.3,3.9,5.7,5.2c2.4,1.3,5.2,1.9,8.2,1.9
	C126.7,107.9,130.2,107.1,133.9,105.5z"/>
<path class="st0" d="M475.1,79.8c0,3.7,0.7,7.2,2.2,10.3c1.5,3.2,3.5,5.9,6,8.1c2.5,2.3,5.4,4,8.5,5.2s6.2,1.8,9.4,1.8
	c0.6,0,2-0.1,4.2-0.3c-2.6,0.9-5.7,1.4-9,1.4c-4.9,0-9.4-1.2-13.3-3.6c-4-2.4-7.1-5.6-9.3-9.7c-2.2-4.1-3.3-8.5-3.3-13.3
	c0-4.9,1.3-9.6,3.8-14c2.5-4.4,5.8-7.7,10-10.1c2.7-1.6,6.1-2.9,10.2-3.6C481.6,59,475.1,68.3,475.1,79.8z M503.5,101
	c-3.5,0-6.5-0.9-9.2-2.7c-2.7-1.8-4.8-4.4-6.3-7.9c-1.5-3.5-2.2-7.6-2.2-12.4c0-5.6,0.8-10.3,2.5-14.1c1.7-3.8,3.9-6.6,6.8-8.5
	c2.9-1.9,6-2.8,9.5-2.8c2.3,0,4.6,0.5,6.8,1.5c2.2,1,4.2,2.4,5.9,4.2v38C513,99.4,508.4,101,503.5,101z M522.3,25.4
	c1.3,1.9,1.9,4.7,1.9,8.6v65.5c0,1.6-0.4,2.9-1.1,3.7c-0.7,0.8-1.9,1.5-3.5,2.1V33.9c0-2.8-0.4-5-1.3-6.7c-0.8-1.7-3.1-3.2-6.7-4.6
	h2.5C518.2,22.6,521,23.5,522.3,25.4z M508.4,23.5c3.9,1.4,6.3,2.9,7.3,4.5c1,1.6,1.5,4.2,1.5,7.8v16c-5.7-1.9-10.8-2.8-15.2-2.8
	c-6.3,0-12,1.3-17.1,3.9c-5.1,2.6-9.2,6.2-12.2,10.8c-3,4.6-4.5,9.8-4.5,15.4c0,3.9,0.7,7.7,2,11.3c1.3,3.6,3.2,6.7,5.7,9.5
	c2.5,2.7,5.5,4.9,8.9,6.4c3.5,1.5,7.2,2.3,11.2,2.3c7.2,0,14.2-2.5,21.2-7.6v7.6l25.6-4.2V101c-3.4,0-5.7-0.4-7.1-1.2
	c-1.4-0.8-2.1-2.3-2.1-4.6V14.2h-3l-22.3,6.6V23.5z M448.1,56.6c1.2,0,2.7,0.7,4.5,2c1.4,0.9,2.9,1.3,4.3,1.3c0.6,0,1.6-0.3,3-0.9
	c-1.2,2.9-3,4.3-5.5,4.3c-2,0-4.5-1.1-7.5-3.2c-1.3-0.8-2.6-1.2-3.9-1.2C445.2,57.4,446.9,56.6,448.1,56.6z M416.5,57.8
	c0.3,0,0.8,0,1.7-0.1c0.8-0.1,1.3-0.1,1.6-0.1c3.1,0,5.4,0.8,6.9,2.5c1.4,1.7,2.2,4.4,2.2,8.1v27.4c0,2.7-0.6,4.6-1.8,5.7
	c-1.2,1.1-3.2,1.8-5.9,2c1-0.8,1.8-1.6,2.3-2.3c0.5-0.7,0.8-1.8,0.8-3.3V68.1C424.1,63.2,421.6,59.7,416.5,57.8z M434.7,49
	l-23.2,6.7v2.2c6.9,1.9,10.3,5.3,10.3,10.3v29.1c0,4-2.8,6-8.4,6h-1.9v3.6h38.7v-3.6c-3.7,0-6.2-0.1-7.7-0.4
	c-1.5-0.2-2.6-0.8-3.2-1.8c-0.7-1-1-2.6-1-4.8V65c1.2-1.1,2.2-2,3.1-2.6s1.8-0.9,2.7-0.9c0.5,0,0.9,0.1,1.3,0.3
	c0.4,0.2,0.9,0.5,1.4,0.9c0.5,0.4,1,0.8,1.5,1.1c0.8,0.6,1.8,1,3,1.4c1.2,0.3,2.3,0.5,3.3,0.5c2.3,0,4.1-0.8,5.6-2.4
	c1.5-1.6,2.2-3.6,2.2-6.1c0-2.3-0.8-4.3-2.5-5.8c-1.7-1.5-3.7-2.3-6.1-2.3c-2.8,0-5.2,0.7-7.1,2.2c-2,1.5-4.8,4.1-8.5,7.8V49H434.7z
	 M355.2,66.4c-1.3,0-2.5-0.4-3.5-1.1c-1-0.8-1.5-1.6-1.5-2.4c0-1.9,0.9-3.7,2.7-5.3c1.8-1.6,4.4-3.1,7.9-4.7c-2,2-3.4,3.5-4.3,4.6
	c-0.8,1.1-1.2,2.3-1.2,3.6c0,1,0.5,1.9,1.4,2.6c0.9,0.7,2.2,1,4,0.9C359.3,65.8,357.5,66.4,355.2,66.4z M360.7,106.3
	c-3,0-5.8-0.9-8.4-2.6c-2.6-1.8-3.9-3.9-3.9-6.6c0-2.9,1.1-5.4,3.2-7.5c2.1-2.1,5.2-4.2,9.1-6.2c-2.6,2.4-4.5,4.6-5.7,6.6
	c-1.3,2-1.9,4.1-1.9,6.3c0,3,1.3,5.3,3.9,6.9c2.6,1.6,6.1,2.4,10.5,2.4C365.9,106,363.6,106.3,360.7,106.3z M370.9,100.7
	c-1.9,0-3.6-0.6-5.1-1.9c-1.4-1.3-2.2-3.1-2.2-5.5c0-3.5,1.2-6.6,3.6-9.1c2.4-2.5,6.7-5.3,12.9-8.4v20.8
	C377,99.3,373.9,100.7,370.9,100.7z M381.6,56.5c-0.6-1.6-1.9-2.9-3.8-3.8c3.5,0.3,5.9,1.4,7.3,3.1c1.4,1.7,2.1,4.8,2.1,9.3v29.8
	c0,3.6,0.6,6.2,1.8,7.9s3.2,2.7,6.1,3.1c-1,0.3-2.2,0.5-3.8,0.5c-3.5,0-5.9-1.2-7.1-3.7c-1.2-2.5-1.8-6.3-1.8-11.3V65.7
	C382.6,61.2,382.2,58.1,381.6,56.5z M365.1,53.8c1.5-0.8,3.5-1.3,6.1-1.3c3,0,5.2,0.8,6.7,2.3c1.5,1.5,2.2,3.7,2.2,6.7v9.8
	c-3.4,1.8-7.8,3.9-13.1,6.4c-5.3,2.5-9.3,4.5-12,6.2c-2.7,1.6-4.9,3.5-6.6,5.6c-1.7,2.1-2.5,4.6-2.5,7.6c0,3.3,1.4,6.1,4.1,8.2
	c2.7,2.2,6.4,3.2,11,3.2c6.5,0,13.1-2.6,19.7-7.7c0.7,2.7,2,4.7,3.8,5.9c1.8,1.3,4.3,1.9,7.4,1.9c2.7,0,5.1-0.5,7.1-1.6
	c2-1.1,4.2-2.7,6.5-4.8l-2.7-2.8c-1.4,1.4-2.7,2.1-3.7,2.1c-1.7,0-2.5-1.3-2.5-4v-33c0-3.4-1-6.3-2.9-8.6c-1.9-2.4-4.5-4.2-7.8-5.3
	s-6.7-1.8-10.5-1.8c-5.1,0-9.8,0.7-14.1,2s-7.6,3.1-10,5.3c-2.4,2.2-3.6,4.4-3.6,6.6c0,1.5,0.7,2.8,2.2,4c1.4,1.1,3.4,1.7,5.8,1.7
	c2.5,0,4.7-0.7,6.4-2.2c1.7-1.4,2.6-3.1,2.6-5c0-1-0.3-2-0.9-3.1c-0.6-1.1-0.9-1.7-0.9-1.9C362.9,55.6,363.7,54.7,365.1,53.8z
	 M289.5,66.4c-1.6,3.6-2.4,7.7-2.4,12.3c0,7.2,2.4,13.1,7.2,17.6c4.8,4.5,10.8,6.8,17.9,6.8c4.2,0,7.9-0.5,10.9-1.6
	c3.1-1.1,6-2.4,9-4.1c-2.8,2.9-6.3,5.2-10.4,6.7c-4.1,1.5-8.2,2.2-12.3,2.2c-7,0-13.2-2.4-18.6-7.2c-5.4-4.8-8-10.9-8-18.5
	c0-10.4,4.5-18.8,13.5-25.2C293.3,59.2,291.1,62.8,289.5,66.4z M299.8,57.7c2.6-2.9,5.7-4.4,9.3-4.4c2.3,0,4.3,0.5,6,1.6
	c1.8,1.1,3.1,2.6,4.2,4.5c1,2,1.5,4.2,1.5,6.7v2.1h-25.2C295.8,64.1,297.2,60.6,299.8,57.7z M323.1,67c0-4.1-0.7-7.2-2-9.2
	c-1.3-2-3.6-3.6-6.6-4.9c4.9,0.8,8.3,2.3,10.4,4.6s3.2,5.9,3.3,10.7h-5.1V67z M319.3,96.7c-2.5,0-5.1-0.4-7.9-1.2
	c-2.7-0.8-5.3-2.2-7.8-4.1c-2.4-1.9-4.4-4.4-5.9-7.5c-1.5-3.1-2.4-6.9-2.6-11.4h43.6c-0.4-3.1-1-5.7-1.8-7.9c-0.7-2.2-2-4.3-3.6-6.4
	c-2.3-2.9-5.4-5.1-9.3-6.7c-3.9-1.6-8-2.4-12.4-2.4c-4.3,0-8.3,0.8-12.1,2.4c-3.8,1.6-7.1,3.9-10,6.8c-2.9,2.9-5.1,6.3-6.7,10.1
	c-1.6,3.8-2.4,7.9-2.4,12.2c0,5.5,1.3,10.4,4,14.7c2.6,4.3,6.2,7.6,10.8,9.9c4.5,2.3,9.5,3.4,14.8,3.4c3.9,0,7.6-0.6,11.2-1.7
	c3.6-1.1,6.9-2.9,9.9-5.2c3-2.3,5.6-5.3,7.7-9l-2.9-2C330.9,94.7,325.3,96.7,319.3,96.7z M249.8,39.1c0-5-1.1-9.2-3.2-12.8
	c-2.1-3.5-5.1-6-9.1-7.5c3.7,0.3,6.8,1.4,9.3,3.2c2.5,1.8,4.4,4.1,5.7,7c1.3,2.8,1.9,6,1.9,9.4c0,10.5-5.5,17-16.5,19.5
	C245.8,54.4,249.8,48.1,249.8,39.1z M251.2,67.7c3.4,3.7,5.1,8.4,5.1,14.4c0,6.4-1.6,11.5-4.8,15.2c-3.2,3.7-7.9,5.9-14.1,6.5
	c9.7-3,14.5-10,14.5-20.8c0-5.7-1.3-10.2-3.8-13.7c-2.5-3.5-6.2-6-11-7.7C243.1,62,247.8,64.1,251.2,67.7z M226.8,61.5
	c4.7,0,8.8,0.9,12.2,2.6c3.4,1.8,6,4.2,7.8,7.5c1.8,3.2,2.7,7,2.7,11.4c0,4.3-0.8,8-2.4,11c-1.6,3-4,5.3-7.3,6.9
	c-3.2,1.6-7.3,2.4-12.3,2.4c-3.5,0-6.3-0.1-8.3-0.4c-2-0.2-3.7-0.7-5.1-1.5c-1.4-0.8-2.3-1.8-2.9-3.1c-0.6-1.3-0.9-3-0.9-5.2V61.5
	H226.8z M210.3,28.9c0-3.7,1-6.3,2.9-7.9c1.9-1.5,5.7-2.3,11.1-2.3c4.2,0,7.5,0.3,10,0.8c2.5,0.5,4.7,1.8,6.8,3.7
	c2,1.7,3.5,3.9,4.6,6.7c1.1,2.7,1.6,5.6,1.6,8.7c0,3.9-0.9,7.4-2.6,10.5c-1.7,3.1-4,5.3-6.7,6.6c-3,1.4-7.8,2.1-14.3,2.1h-13.5V28.9
	z M197.8,100.2c-1,2-3.4,3-7.1,3h-2.1c2.2-0.8,3.7-1.9,4.7-3.2c0.9-1.4,1.4-3.7,1.4-7V28.9c0-3.2-0.4-5.6-1.3-7
	c-0.9-1.4-2.5-2.5-4.8-3.1h1.5c3.5,0,5.9,0.7,7.2,2.1c1.3,1.4,1.9,3.6,1.9,6.5v65.2C199.3,95.7,198.8,98.2,197.8,100.2z
	 M249.7,105.1c4.2-1.1,7.8-2.7,10.8-4.8c3-2.1,5.3-4.5,6.9-7.3c1.6-2.8,2.4-5.8,2.4-9.1c0-6.4-2.6-11.7-7.8-15.9s-12.7-7-22.4-8.1
	c5.9-0.8,10.9-2.2,15.1-4.2c4.1-2,7.2-4.5,9.2-7.5c2-3,3-6.2,3-9.8c0-3.3-0.8-6.3-2.4-9.2c-1.6-2.8-3.9-5.3-6.7-7.4
	c-2.9-2.1-6.4-3.7-10.6-4.9c-4.2-1.2-8.8-1.8-13.8-1.8h-56.5v3.6c4.8,0,8.3,0.4,10.4,1.1c2.1,0.8,3.5,2,4.1,3.6
	c0.6,1.7,0.9,4.2,0.9,7.5v57.5c0,4-0.2,6.9-0.6,8.7c-0.4,1.8-1.6,3.2-3.5,4.3s-5.2,1.7-9.6,1.7h-1.7v3.6h58.9
	C240.8,106.8,245.5,106.3,249.7,105.1z"/>
</svg>
