<svg height="420pt" viewBox="-85 0 420 420.46763" width="420pt" xmlns="http://www.w3.org/2000/svg"><path d="m237.515625 170.101562c-.261719-3.566406-3.226563-6.328124-6.808594-6.328124h-16.472656c22.785156-17.90625 36.339844-45.257813 36.339844-75.09375 0-2.554688-1.425781-4.898438-3.699219-6.070313-2.28125-1.175781-5.007812-.96875-7.09375.511719l-36.96875 26.402344c8.554688-25.332032 6.148438-53.316407-7.496094-77.457032-1.253906-2.222656-3.746094-3.582031-6.207031-3.460937-2.554687.101562-4.839844 1.617187-5.921875 3.9375l-21.734375 46.628906c-3.03125-42.46875-28.265625-75.230469-29.40625-76.6875-2.585937-3.3125-8.171875-3.3125-10.757813 0-1.140624 1.457031-26.375 34.222656-29.40625 76.691406l-21.734374-46.632812c-1.078126-2.316407-3.367188-3.835938-5.917969-3.9375-2.570313-.097657-4.949219 1.242187-6.210938 3.460937-13.535156 23.9375-15.84375 52.21875-7.375 77.539063l-37.089843-26.484375c-2.082032-1.480469-4.8125-1.6875-7.09375-.511719-2.273438 1.171875-3.699219 3.515625-3.699219 6.070313 0 29.828124 13.558593 57.183593 36.34375 75.09375h-23.304688c-3.578125 0-6.546875 2.761718-6.804687 6.328124l-8.429688 115.796876c-2.550781 35.09375 9.609375 69.878906 33.375 95.433593 23.460938 25.238281 55.179688 39.136719 89.3125 39.136719 34.132813 0 65.855469-13.898438 89.316406-39.136719 23.765626-25.554687 35.925782-60.335937 33.371094-95.433593zm-46.082031-7.980468c-.835938.417968-1.550782.984375-2.125 1.652344h-38.980469l85.394531-60.972657c-4.386718 25.484375-20.519531 47.484375-44.289062 59.320313zm-2.097656-110.457032c8.785156 24.476563 5.476562 51.6875-9.574219 73.753907-.199219.292969-.351563.605469-.5.914062l-25.359375 18.109375c2.914062-9 5.023437-19.417968 6.316406-30.429687.078125-.140625.179688-.265625.25-.417969zm-62.667969-32.8125c7.828125 12.609376 21.433593 38.800782 21.433593 68.582032 0 44.4375-12.898437 73.917968-21.433593 73.917968-8.53125 0-21.433594-29.480468-21.433594-73.917968 0-29.78125 13.609375-55.976563 21.433594-68.582032zm-62.652344 32.855469 29.121094 62.46875c1.296875 10.953125 3.398437 21.3125 6.296875 30.265625l-25.023438-17.867187c-15.539062-21.941407-19.199218-49.996094-10.394531-74.867188zm-2.160156 110.386719c-23.734375-11.839844-39.859375-33.824219-44.242188-59.292969l85.394531 60.972657h-39.007812c-.578125-.679688-1.296875-1.253907-2.144531-1.679688zm140.71875 209.941406c-20.855469 22.429688-49.027344 34.777344-79.320313 34.777344-30.292968 0-58.46875-12.347656-79.320312-34.777344-21.1875-22.785156-32.035156-53.824218-29.753906-85.148437l7.964843-109.460938h202.214844l7.964844 109.460938c2.285156 31.324219-8.5625 62.363281-29.75 85.148437zm0 0"/><path d="m203.175781 325.878906c-3.226562-1.90625-7.429687-.84375-9.347656 2.402344-14.699219 24.851562-41.742187 40.289062-70.574219 40.289062-3.773437 0-6.828125 3.058594-6.828125 6.828126 0 3.769531 3.054688 6.828124 6.828125 6.828124 33.640625 0 65.179688-18.007812 82.320313-47 1.921875-3.242187.847656-7.425781-2.398438-9.347656zm0 0"/></svg>